
											<svg xmlns="http://www.w3.org/2000/svg" width="32px" height="32px" viewBox="0 0 32 32" stroke="none" stroke-width="1" fill="#222222" fill-rule="evenodd">
												<title>ic_delete</title>
												<path d="M5.5,10.1 C4.94771525,10.1 4.5,9.65228475 4.5,9.1 C4.5,8.54771525 4.94771525,8.1 5.5,8.1 L26.2,8.1 C26.7522847,8.1 27.2,8.54771525 27.2,9.1 C27.2,9.65228475 26.7522847,10.1 26.2,10.1 L5.5,10.1 Z"></path>
												<path d="M22.9,9.1 C22.9,8.54771525 23.3477153,8.1 23.9,8.1 C24.4522847,8.1 24.9,8.54771525 24.9,9.1 L24.9,25.2 C24.9,27.0225397 23.4225397,28.5 21.6,28.5 L10.1,28.5 C8.27746033,28.5 6.8,27.0225397 6.8,25.2 L6.8,9.1 C6.8,8.54771525 7.24771525,8.1 7.8,8.1 C8.35228475,8.1 8.8,8.54771525 8.8,9.1 L8.8,25.2 C8.8,25.9179702 9.38202983,26.5 10.1,26.5 L21.6,26.5 C22.3179702,26.5 22.9,25.9179702 22.9,25.2 L22.9,9.1 Z M12.25,9.1 C12.25,9.65228475 11.8022847,10.1 11.25,10.1 C10.6977153,10.1 10.25,9.65228475 10.25,9.1 L10.25,6.8 C10.25,4.97746033 11.7274603,3.5 13.55,3.5 L18.15,3.5 C19.9725397,3.5 21.45,4.97746033 21.45,6.8 L21.45,9.1 C21.45,9.65228475 21.0022847,10.1 20.45,10.1 C19.8977153,10.1 19.45,9.65228475 19.45,9.1 L19.45,6.8 C19.45,6.08202983 18.8679702,5.5 18.15,5.5 L13.55,5.5 C12.8320298,5.5 12.25,6.08202983 12.25,6.8 L12.25,9.1 Z"></path>
												<path d="M12.55,14.85 C12.55,14.2977153 12.9977153,13.85 13.55,13.85 C14.1022847,13.85 14.55,14.2977153 14.55,14.85 L14.55,21.75 C14.55,22.3022847 14.1022847,22.75 13.55,22.75 C12.9977153,22.75 12.55,22.3022847 12.55,21.75 L12.55,14.85 Z"></path>
												<path d="M17.15,14.85 C17.15,14.2977153 17.5977153,13.85 18.15,13.85 C18.7022847,13.85 19.15,14.2977153 19.15,14.85 L19.15,21.75 C19.15,22.3022847 18.7022847,22.75 18.15,22.75 C17.5977153,22.75 17.15,22.3022847 17.15,21.75 L17.15,14.85 Z"></path>
											</svg>
										