
											<svg xmlns="http://www.w3.org/2000/svg" width="32px" height="32px" viewBox="0 0 32 32" stroke="none" stroke-width="1" fill="#45B29D" fill-rule="evenodd">
												<title>ic_check_circle</title>
												<path d="M16,28.5 C9.09644063,28.5 3.5,22.9035594 3.5,16 C3.5,9.09644063 9.09644063,3.5 16,3.5 C22.9035594,3.5 28.5,9.09644063 28.5,16 C28.5,22.9035594 22.9035594,28.5 16,28.5 Z M16,26.5 C21.7989899,26.5 26.5,21.7989899 26.5,16 C26.5,10.2010101 21.7989899,5.5 16,5.5 C10.2010101,5.5 5.5,10.2010101 5.5,16 C5.5,21.7989899 10.2010101,26.5 16,26.5 Z"></path>
												<path d="M14.5005387,18.2670752 L20.1236243,11.6113865 C20.4800487,11.1895097 21.1109866,11.13645 21.5328635,11.4928743 C21.9547403,11.8492987 22.0078,12.4802366 21.6513757,12.9021135 L15.3263757,20.3886135 C14.9486177,20.8357415 14.2692921,20.8642557 13.8553932,20.4503568 L10.4053932,17.0003568 C10.0148689,16.6098325 10.0148689,15.9766675 10.4053932,15.5861432 C10.7959175,15.1956189 11.4290825,15.1956189 11.8196068,15.5861432 L14.5005387,18.2670752 Z"></path>
											</svg>
										