
											<svg xmlns="http://www.w3.org/2000/svg" width="32px" height="32px" viewBox="0 0 32 32" stroke="none" stroke-width="1" fill="#CECECE" fill-rule="evenodd">
												<title>ic_arrow_right</title>
												<path d="M24,15 C24.5522847,15 25,15.4477153 25,16 C25,16.5522847 24.5522847,17 24,17 L8,17 C7.44771525,17 7,16.5522847 7,16 C7,15.4477153 7.44771525,15 8,15 L24,15 Z" transform="translate(16.000000, 16.000000) scale(-1, 1) translate(-16.000000, -16.000000) "></path>
													<path d="M24.7071068,23.2928932 C25.0976311,23.6834175 25.0976311,24.3165825 24.7071068,24.7071068 C24.3165825,25.0976311 23.6834175,25.0976311 23.2928932,24.7071068 L15.2928932,16.7071068 C14.9023689,16.3165825 14.9023689,15.6834175 15.2928932,15.2928932 L23.2928932,7.29289322 C23.6834175,6.90236893 24.3165825,6.90236893 24.7071068,7.29289322 C25.0976311,7.68341751 25.0976311,8.31658249 24.7071068,8.70710678 L17.4142136,16 L24.7071068,23.2928932 Z" transform="translate(20.000000, 16.000000) scale(-1, 1) translate(-20.000000, -16.000000) "></path>
											</svg>
										