
											<svg xmlns="http://www.w3.org/2000/svg" width="32px" height="32px" viewBox="0 0 32 32" stroke="none" stroke-width="1" fill="#F46155" fill-rule="evenodd">
												<title>ic_x_circle</title>
												<path d="M16,28.5 C9.09644063,28.5 3.5,22.9035594 3.5,16 C3.5,9.09644063 9.09644063,3.5 16,3.5 C22.9035594,3.5 28.5,9.09644063 28.5,16 C28.5,22.9035594 22.9035594,28.5 16,28.5 Z M16,26.5 C21.7989899,26.5 26.5,21.7989899 26.5,16 C26.5,10.2010101 21.7989899,5.5 16,5.5 C10.2010101,5.5 5.5,10.2010101 5.5,16 C5.5,21.7989899 10.2010101,26.5 16,26.5 Z"></path>
												<path d="M18.7428932,11.8428932 C19.1334175,11.4523689 19.7665825,11.4523689 20.1571068,11.8428932 C20.5476311,12.2334175 20.5476311,12.8665825 20.1571068,13.2571068 L13.2571068,20.1571068 C12.8665825,20.5476311 12.2334175,20.5476311 11.8428932,20.1571068 C11.4523689,19.7665825 11.4523689,19.1334175 11.8428932,18.7428932 L18.7428932,11.8428932 Z"></path>
												<path d="M11.8428932,13.2571068 C11.4523689,12.8665825 11.4523689,12.2334175 11.8428932,11.8428932 C12.2334175,11.4523689 12.8665825,11.4523689 13.2571068,11.8428932 L20.1571068,18.7428932 C20.5476311,19.1334175 20.5476311,19.7665825 20.1571068,20.1571068 C19.7665825,20.5476311 19.1334175,20.5476311 18.7428932,20.1571068 L11.8428932,13.2571068 Z"></path>
											</svg>
										