
											<svg xmlns="http://www.w3.org/2000/svg" width="32px" height="32px" viewBox="0 0 32 32" stroke="none" stroke-width="1" fill="#F46155" fill-rule="evenodd">
												<title>ic_alert_circle</title>
												<path d="M16,28.5 C9.09644063,28.5 3.5,22.9035594 3.5,16 C3.5,9.09644063 9.09644063,3.5 16,3.5 C22.9035594,3.5 28.5,9.09644063 28.5,16 C28.5,22.9035594 22.9035594,28.5 16,28.5 Z M16,26.5 C21.7989899,26.5 26.5,21.7989899 26.5,16 C26.5,10.2010101 21.7989899,5.5 16,5.5 C10.2010101,5.5 5.5,10.2010101 5.5,16 C5.5,21.7989899 10.2010101,26.5 16,26.5 Z"></path>
												<path d="M15,11.4 C15,10.8477153 15.4477153,10.4 16,10.4 C16.5522847,10.4 17,10.8477153 17,11.4 L17,16 C17,16.5522847 16.5522847,17 16,17 C15.4477153,17 15,16.5522847 15,16 L15,11.4 Z"></path>
												<path d="M16,21.6 C15.4477153,21.6 15,21.1522847 15,20.6 C15,20.0477153 15.4477153,19.6 16,19.6 L16.0115,19.6 C16.5637847,19.6 17.0115,20.0477153 17.0115,20.6 C17.0115,21.1522847 16.5637847,21.6 16.0115,21.6 L16,21.6 Z"></path>
											</svg>
										