
											<svg xmlns="http://www.w3.org/2000/svg" width="32px" height="32px" viewBox="0 0 32 32" stroke="none" stroke-width="1" fill="#FFFFFF" fill-rule="evenodd">
												<title>ic_add_circle</title>
												<path d="M16,28 C9.372583,28 4,22.627417 4,16 C4,9.372583 9.372583,4 16,4 C22.627417,4 28,9.372583 28,16 C28,22.627417 22.627417,28 16,28 Z M16,26 C21.5228475,26 26,21.5228475 26,16 C26,10.4771525 21.5228475,6 16,6 C10.4771525,6 6,10.4771525 6,16 C6,21.5228475 10.4771525,26 16,26 Z"></path>
												<path d="M15,11.6 C15,11.0477153 15.4477153,10.6 16,10.6 C16.5522847,10.6 17,11.0477153 17,11.6 L17,20.4 C17,20.9522847 16.5522847,21.4 16,21.4 C15.4477153,21.4 15,20.9522847 15,20.4 L15,11.6 Z"></path>
												<path d="M11.6,17 C11.0477153,17 10.6,16.5522847 10.6,16 C10.6,15.4477153 11.0477153,15 11.6,15 L20.4,15 C20.9522847,15 21.4,15.4477153 21.4,16 C21.4,16.5522847 20.9522847,17 20.4,17 L11.6,17 Z"></path>
											</svg>
										