
											<svg xmlns="http://www.w3.org/2000/svg" width="32px" height="32px" viewBox="0 0 32 32" stroke="none" stroke-width="1" fill="#222222" fill-rule="evenodd">
												<title>ic_x</title>
												<path d="M23.561276,6.41841888 C24.1191679,5.86052704 25.0236893,5.86052704 25.5815811,6.41841888 C26.139473,6.97631073 26.139473,7.88083213 25.5815811,8.43872397 L8.43872397,25.5815811 C7.88083213,26.139473 6.97631073,26.139473 6.41841888,25.5815811 C5.86052704,25.0236893 5.86052704,24.1191679 6.41841888,23.561276 L23.561276,6.41841888 Z"></path>
												<path d="M6.41841888,8.43872397 C5.86052704,7.88083213 5.86052704,6.97631073 6.41841888,6.41841888 C6.97631073,5.86052704 7.88083213,5.86052704 8.43872397,6.41841888 L25.5815811,23.561276 C26.139473,24.1191679 26.139473,25.0236893 25.5815811,25.5815811 C25.0236893,26.139473 24.1191679,26.139473 23.561276,25.5815811 L6.41841888,8.43872397 Z"></path>
											</svg>
										