
											<svg xmlns="http://www.w3.org/2000/svg" width="32px" height="32px" viewBox="0 0 32 32" stroke="none" stroke-width="1" fill="#222222" fill-rule="evenodd">
												<title>ic_file</title>
												<path d="M18.4,3 C18.6652165,3 18.9195704,3.10535684 19.1071068,3.29289322 L26.3071068,10.4928932 C26.4946432,10.6804296 26.6,10.9347835 26.6,11.2 L26.6,25.6 C26.6,27.4777681 25.0777681,29 23.2,29 L8.8,29 C6.92223185,29 5.4,27.4777681 5.4,25.6 L5.4,6.4 C5.4,4.52223185 6.92223185,3 8.8,3 L18.4,3 Z M17.9857864,5 L8.8,5 C8.02680135,5 7.4,5.62680135 7.4,6.4 L7.4,25.6 C7.4,26.3731986 8.02680135,27 8.8,27 L23.2,27 C23.9731986,27 24.6,26.3731986 24.6,25.6 L24.6,11.6142136 L17.9857864,5 Z"></path>
												<path d="M25.6,10.2 C26.1522847,10.2 26.6,10.6477153 26.6,11.2 C26.6,11.7522847 26.1522847,12.2 25.6,12.2 L18.4,12.2 C17.8477153,12.2 17.4,11.7522847 17.4,11.2 L17.4,4 C17.4,3.44771525 17.8477153,3 18.4,3 C18.9522847,3 19.4,3.44771525 19.4,4 L19.4,10.2 L25.6,10.2 Z"></path>
												<path d="M20.8,16.2 C21.3522847,16.2 21.8,16.6477153 21.8,17.2 C21.8,17.7522847 21.3522847,18.2 20.8,18.2 L11.2,18.2 C10.6477153,18.2 10.2,17.7522847 10.2,17.2 C10.2,16.6477153 10.6477153,16.2 11.2,16.2 L20.8,16.2 Z"></path>
												<path d="M20.8,21 C21.3522847,21 21.8,21.4477153 21.8,22 C21.8,22.5522847 21.3522847,23 20.8,23 L11.2,23 C10.6477153,23 10.2,22.5522847 10.2,22 C10.2,21.4477153 10.6477153,21 11.2,21 L20.8,21 Z"></path>
												<path d="M13.6,11.4 C14.1522847,11.4 14.6,11.8477153 14.6,12.4 C14.6,12.9522847 14.1522847,13.4 13.6,13.4 L11.2,13.4 C10.6477153,13.4 10.2,12.9522847 10.2,12.4 C10.2,11.8477153 10.6477153,11.4 11.2,11.4 L13.6,11.4 Z"></path>
											</svg>
										