
											<svg xmlns="http://www.w3.org/2000/svg" width="32px" height="32px" viewBox="0 0 32 32" stroke="none" stroke-width="1" fill="#CECECE" fill-rule="evenodd">
												<title>ic_arrow_left</title>
												<path d="M24,15 C24.5522847,15 25,15.4477153 25,16 C25,16.5522847 24.5522847,17 24,17 L8,17 C7.44771525,17 7,16.5522847 7,16 C7,15.4477153 7.44771525,15 8,15 L24,15 Z"></path>
												<path d="M16.7071068,23.2928932 C17.0976311,23.6834175 17.0976311,24.3165825 16.7071068,24.7071068 C16.3165825,25.0976311 15.6834175,25.0976311 15.2928932,24.7071068 L7.29289322,16.7071068 C6.90236893,16.3165825 6.90236893,15.6834175 7.29289322,15.2928932 L15.2928932,7.29289322 C15.6834175,6.90236893 16.3165825,6.90236893 16.7071068,7.29289322 C17.0976311,7.68341751 17.0976311,8.31658249 16.7071068,8.70710678 L9.41421356,16 L16.7071068,23.2928932 Z"></path>
											</svg>
										