
											<svg xmlns="http://www.w3.org/2000/svg" width="32px" height="32px" viewBox="0 0 32 32" stroke="none" stroke-width="1" fill="#222222" fill-rule="evenodd">
												<title>ic_pen_edit</title>
												<path d="M14.787817,5.78361161 C15.4189995,5.78361161 15.9306741,6.29528618 15.9306741,6.92646875 C15.9306741,7.55765132 15.4189995,8.06932589 14.787817,8.06932589 L6.78781697,8.06932589 C6.15663439,8.06932589 5.64495982,8.58100046 5.64495982,9.21218303 L5.64495982,25.212183 C5.64495982,25.8433656 6.15663439,26.3550402 6.78781697,26.3550402 L22.787817,26.3550402 C23.4189995,26.3550402 23.9306741,25.8433656 23.9306741,25.212183 L23.9306741,17.212183 C23.9306741,16.5810005 24.4423487,16.0693259 25.0735313,16.0693259 C25.7047138,16.0693259 26.2163884,16.5810005 26.2163884,17.212183 L26.2163884,25.212183 C26.2163884,27.1057307 24.6813647,28.6407545 22.787817,28.6407545 L6.78781697,28.6407545 C4.89426925,28.6407545 3.35924554,27.1057307 3.35924554,25.212183 L3.35924554,9.21218303 C3.35924554,7.31863532 4.89426925,5.78361161 6.78781697,5.78361161 L14.787817,5.78361161 Z M25.9796949,7.83263244 C26.4801553,7.33217206 26.4801553,6.52076548 25.9796949,6.02030511 C25.4792345,5.51984473 24.6678279,5.51984472 24.1673676,6.02030509 L13.5340616,16.6536111 L12.9299524,19.0700476 L15.3463889,18.4659384 L25.9796949,7.83263244 Z M27.595939,4.40406103 C28.9890263,5.79714835 28.9890263,8.05578914 27.595939,9.4488765 L16.7387961,20.3060194 C16.5923289,20.4524866 16.4088091,20.5563938 16.2078577,20.6066316 L11.6364291,21.7494887 C10.7994229,21.9587403 10.0412597,21.2005771 10.2505113,20.3635709 L11.3933684,15.7921423 C11.4436062,15.5911909 11.5475134,15.4076711 11.6939806,15.2612039 L22.5511235,4.404061 C23.9442109,3.0109737 26.2028517,3.01097372 27.595939,4.40406103 Z"></path>
											</svg>
										