
											<svg xmlns="http://www.w3.org/2000/svg" width="32px" height="32px" viewBox="0 0 32 32" stroke="none" stroke-width="1" fill="#FFFFFF" fill-rule="evenodd">
												<title>ic_calendar</title>
												<path d="M8.27272727,8.36363636 C7.67023482,8.36363636 7.18181818,8.852053 7.18181818,9.45454545 L7.18181818,24.7272727 C7.18181818,25.3297652 7.67023482,25.8181818 8.27272727,25.8181818 L23.5454545,25.8181818 C24.147947,25.8181818 24.6363636,25.3297652 24.6363636,24.7272727 L24.6363636,9.45454545 C24.6363636,8.852053 24.147947,8.36363636 23.5454545,8.36363636 L8.27272727,8.36363636 Z M8.27272727,6.18181818 L23.5454545,6.18181818 C25.3529319,6.18181818 26.8181818,7.64706809 26.8181818,9.45454545 L26.8181818,24.7272727 C26.8181818,26.5347501 25.3529319,28 23.5454545,28 L8.27272727,28 C6.46524991,28 5,26.5347501 5,24.7272727 L5,9.45454545 C5,7.64706809 6.46524991,6.18181818 8.27272727,6.18181818 Z"></path>
												<path d="M19.1818182,5.09090909 C19.1818182,4.48841664 19.6702348,4 20.2727273,4 C20.8752197,4 21.3636364,4.48841664 21.3636364,5.09090909 L21.3636364,9.45454545 C21.3636364,10.0570379 20.8752197,10.5454545 20.2727273,10.5454545 C19.6702348,10.5454545 19.1818182,10.0570379 19.1818182,9.45454545 L19.1818182,5.09090909 Z"></path>
												<path d="M10.4545455,5.09090909 C10.4545455,4.48841664 10.9429621,4 11.5454545,4 C12.147947,4 12.6363636,4.48841664 12.6363636,5.09090909 L12.6363636,9.45454545 C12.6363636,10.0570379 12.147947,10.5454545 11.5454545,10.5454545 C10.9429621,10.5454545 10.4545455,10.0570379 10.4545455,9.45454545 L10.4545455,5.09090909 Z"></path>
												<path d="M6.09090909,14.9090909 C5.48841664,14.9090909 5,14.4206743 5,13.8181818 C5,13.2156894 5.48841664,12.7272727 6.09090909,12.7272727 L25.7272727,12.7272727 C26.3297652,12.7272727 26.8181818,13.2156894 26.8181818,13.8181818 C26.8181818,14.4206743 26.3297652,14.9090909 25.7272727,14.9090909 L6.09090909,14.9090909 Z"></path>
											</svg>
										